<?xml version="1.0" encoding="UTF-8"?>
<svg xmlns="http://www.w3.org/2000/svg" version="1.1" xmlns:xlink="http://www.w3.org/1999/xlink" viewBox="0 0 595.28 841.89">
  <!-- Generator: Adobe Illustrator 29.5.0, SVG Export Plug-In . SVG Version: 2.1.0 Build 137)  -->
  <defs>
    <style>
      .st0 {
        fill: #b2b1b1;
      }

      .st1 {
        fill: url(#Degradado_sin_nombre_16);
      }

      .st2 {
        mask: url(#mask-1);
      }

      .st3 {
        fill: #2b2b2b;
      }

      .st4 {
        fill: #f8f7f7;
      }

      .st5 {
        fill: #cd1c24;
      }

      .st6 {
        fill: #f1909d;
      }

      .st7 {
        fill: #fff;
      }

      .st8 {
        mask: url(#mask);
      }

      .st9 {
        fill: #b32023;
      }

      .st10 {
        fill: #7c7b7b;
      }

      .st11 {
        fill: #b5b5b5;
      }

      .st12 {
        fill: #b32323;
      }

      .st13 {
        fill: #d3d3d3;
      }

      .st14 {
        fill: #424242;
      }

      .st15 {
        fill: #434342;
      }

      .st16 {
        fill: #969696;
      }

      .st17 {
        fill: url(#Degradado_sin_nombre_23);
      }

      .st18 {
        fill: #d8989e;
      }

      .st19 {
        fill: #efefef;
      }

      .st20 {
        fill: #3a3a3a;
      }

      .st21 {
        fill: #ef797b;
      }

      .st22 {
        fill: #f2cdd1;
      }

      .st23 {
        fill: #fde8e7;
      }

      .st24 {
        fill: #5a5a5a;
      }

      .st25 {
        fill: #010101;
      }

      .st26 {
        fill: #541417;
      }

      .st27 {
        fill: none;
        stroke: #fff;
        stroke-miterlimit: 10;
        stroke-width: .25px;
      }
    </style>
    <linearGradient id="Degradado_sin_nombre_23" data-name="Degradado sin nombre 23" x1="403.6" y1="453.52" x2="403.6" y2="308.89" gradientUnits="userSpaceOnUse">
      <stop offset="0" stop-color="#000"/>
      <stop offset="1" stop-color="#fff"/>
    </linearGradient>
    <mask id="mask" x="211.31" y="308.89" width="384.52" height="144.63" maskUnits="userSpaceOnUse">
      <path class="st17" d="M314.53,346.99v-9.26h16.17v8.48h4.28v2.45h2.1v-1.83h3.32v3.15h5.94v2.53h1.14v1.66h2.1v1.66h.61v-2.71h.96v-2.53h3.06v-6.55h2.88v-18.61h4.37v9.79l.39-.39v-10.53h5.55v.96h8.39v-13.02h2.97l4.81-3.32v4.37h4.54v29.53h3.5v-21.67l4.98,2.8,4.98-2.8v33.12h2.62v-2.01h1.14v2.01h1.49v-11.45h16.08v6.38h2.01v-9.52h7.69v10.66h.5v-.67h1.4v-.55h1.25v.32h.38v-1.17h.79v-.38h1.08v-.41h1.72v.73h1.49v3.12h4.57v1.05h.7v.87s1.6,0,1.51,0,0-5.97,0-5.97l1.09-1.09v-3.25h8.64v10.19h1.89v1.92h2.94v1.6h7.11v2.3h.52v8.68h4.28v-2.42h6.61v-26.33h6.64v10.72h1.46v6.09h9.26v2.45h2.62v-2.13h1.92v-2.88h.93l3.55.87h1.31v-1.17l2.62-1.49v1.22h3.38v-.32h.52v-.32h.79v-4.22h1.69v-.64h2.07v.61h1.72v4.28h1.57v1.92l1.14-1.11v.29h4.51v2.07h1.75v-2.3h1.25v4.17h.79v-4.11h.9v1.66h1.4v-3.7h2.3v-2.27h4.28v5.07h1.66v-6.06h4.51v8.42h.9v-8.88h5.3v1.72h1.25v1.83h2.04v.58h1.86v1.11h3.73v-14.39l1.6-1.6h3.76v4.28h1.34v-11.27h3.9v4.54h.67v3.67h.47v4.19h.58v4.43h.58v2.48h.38v.26h1.51v-.52h2.91v.52h3.41v1.49h.96v-2.07h3.41v.41h2.13v.58h1.31v-.58h1.43v.99h.7v.44h2.1v103.33H211.37c.2-10.9.39-21.8.59-32.71.34-1.79.9-4.29,1.89-7.18.66-1.95,3.8-10.83,11.79-19.59,1.62-1.78,3.47-3.79,6.42-5.89,2.81-2,5-2.94,8.53-4.57,4.06-1.87,8.07-3.86,12.07-5.86,7.35-3.67,12.69-7.11,17.46-10.29,6.59-4.4,15.4-11,24.99-20.47,6.47,0,12.95.02,19.42.02Z"/>
    </mask>
    <linearGradient id="Degradado_sin_nombre_16" data-name="Degradado sin nombre 16" x1="403.6" y1="465.01" x2="403.6" y2="328" gradientUnits="userSpaceOnUse">
      <stop offset="0" stop-color="#000"/>
      <stop offset="1" stop-color="#fff"/>
    </linearGradient>
    <mask id="mask-1" x="211.31" y="328" width="384.58" height="137.02" maskUnits="userSpaceOnUse">
      <path class="st1" d="M315.23,383.1v-30.06h13.86v6.41h5.59v23.65h1.4v-3.73h4.08v-2.8h2.45v-1.51h4.66v-2.45h2.33v-2.1h1.28v-1.98h1.51v-1.51h1.28v-1.86h1.17v-8.04h8.04v8.74h.93v-28.31h4.31v25.28h.7v-25.28l7.34-9.55,20.39,21.67v33.44h1.28v-46.25l5.71-2.21v39.26h6.52v-17.83h11.53v17.83h9.79v-9.55h14.68v2.1h12.93v10.49h1.63v-6.76h8.62v12.93h12.35v-30.64h5.48v25.75h1.51v1.51h1.98v-34.25h7.81v25.98h2.8v-2.8h1.51v-2.21l5.36.7v5.24h.93v-6.06l2.04-2.04v16.02h.47v-5.71h8.62v4.95h7.51v-5.88h3.5v6.47h4.66v-7.98h5.59v6.82l.29-.29v-5.77h5.48v4.95h6.47v-4.31h2.21v4.78h9.55v-2.5h6.29v3.26h6.82v-8.85h13.86v12.87h3.55c-.21,27.3-.41,54.61-.62,81.91-127.05-.72-254.09-1.45-381.14-2.17-.94-2.33-1.88-4.67-2.83-7v-4.55c.85-4.69,2.53-10.58,5.9-16.75,4.65-8.51,10.43-13.73,12.72-15.47,3.43-2.6,7.6-4.76,7.6-4.76,2.31-1.19,3.89-1.8,5.5-2.49,2.91-1.23,7.01-3.17,11.96-6.17,4.9-2.56,10.19-5.64,15.7-9.33,6.65-4.47,12.37-9,17.21-13.27,9.11.02,18.21.04,27.32.06Z"/>
    </mask>
  </defs>
  <g id="fondo">
    <path class="st23" d="M209.15,471.33c.75,4.93,7.89,7.87,9.54,8.56,5.04,2.08,9.52,1.86,10.24,1.83,12.81-.41,29.68,22.74,43.26,32.71,24.42,17.93,43.67-1.31,90.08,14.79,30.32,10.52,24.34,20.53,49.73,28.6,45.2,14.38,70.06-15.48,115.45-7.12,17.03,3.14,41.34,12.46,67.81,42.13V169.57c-29.7,17.31-55.04,24.73-72.66,28.31-24.65,5.01-39.72,3.62-63.96,14.68-19.36,8.83-32.69,20.24-38.8,25.51-24.63,21.29-24.26,32.76-45.84,48.71-18.14,13.42-20.43,6.81-40.84,19.79-35.02,22.28-28.41,41.82-60.94,61.51-21.96,13.3-32.85,9.16-46.05,25.27-4.74,5.78-16.44,20.54-14.65,37.69,1.33,12.74,9,19.55,4.71,28.5-2.67,5.57-7.76,7.36-7.1,11.78Z"/>
  </g>
  <g id="Capa_29">
    <g id="Capa_30">
      <g class="st8">
        <path class="st22" d="M314.48,346.99v-9.26h16.17v8.48h4.28v2.45h2.1v-1.83h3.32v3.15h5.94v2.53h1.14v1.66h2.1v1.66h.61v-2.71h.96v-2.53h3.06v-6.55h2.88v-18.61h4.37v9.79l.39-.39v-10.53h5.55v.96h8.39v-13.02h2.97l4.81-3.32v4.37h4.54v29.53h3.5v-21.67l4.98,2.8,4.98-2.8v33.12h2.62v-2.01h1.14v2.01h1.49v-11.45h16.08v6.38h2.01v-9.52h7.69v10.66h.5v-.67h1.4v-.55h1.25v.32h.38v-1.17h.79v-.38h1.08v-.41h1.72v.73h1.49v3.12h4.57v1.05h.7v.87s1.6,0,1.51,0,0-5.97,0-5.97l1.09-1.09v-3.25h8.64v10.19h1.89v1.92h2.94v1.6h7.11v2.3h.52v8.68h4.28v-2.42h6.61v-26.33h6.64v10.72h1.46v6.09h9.26v2.45h2.62v-2.13h1.92v-2.88h.93l3.55.87h1.31v-1.17l2.62-1.49v1.22h3.38v-.32h.52v-.32h.79v-4.22h1.69v-.64h2.07v.61h1.72v4.28h1.57v1.92l1.14-1.11v.29h4.51v2.07h1.75v-2.3h1.25v4.17h.79v-4.11h.9v1.66h1.4v-3.7h2.3v-2.27h4.28v5.07h1.66v-6.06h4.51v8.42h.9v-8.88h5.3v1.72h1.25v1.83h2.04v.58h1.86v1.11h3.73v-14.39l1.6-1.6h3.76v4.28h1.34v-11.27h3.9v4.54h.67v3.67h.47v4.19h.58v4.43h.58v2.48h.38v.26h1.51v-.52h2.91v.52h3.41v1.49h.96v-2.07h3.41v.41h2.13v.58h1.31v-.58h1.43v.99h.7v.44h2.1v103.33H211.31c.2-10.9.39-21.8.59-32.71.34-1.79.9-4.29,1.89-7.18,3.46-10.23,11.79-19.59,11.79-19.59,2.78-3.13,6.58-7.4,12.85-11.07,4.72-2.76,7.14-3.01,14.35-5.74,0,0,9.2-3.49,18.13-8.32,6.25-3.39,15.49-9.7,24.85-21.95,6.24,0,12.48.02,18.72.02Z"/>
      </g>
    </g>
    <g class="st2">
      <path class="st18" d="M315.23,383.1v-30.06h13.86v6.41h5.59v23.65h1.4v-3.73h4.08v-2.8h2.45v-1.51h4.66v-2.45h2.33v-2.1h1.28v-1.98h1.51v-1.51h1.28v-1.86h1.17v-8.04h8.04v8.74h.93v-28.31h4.31v25.28h.7v-25.28l7.34-9.55,20.39,21.67v33.44h1.28v-46.25l5.71-2.21v39.26h6.52v-17.83h11.53v17.83h9.79v-9.55h14.68v2.1h12.93v10.49h1.63v-6.76h8.62v12.93h12.35v-30.64h5.48v25.75h1.51v1.51h1.98v-34.25h7.81v25.98h2.8v-2.8h1.51v-2.21l5.36.7v5.24h.93v-6.06l2.04-2.04v16.02h.47v-5.71h8.62v4.95h7.51v-5.88h3.5v6.47h4.66v-7.98h5.59v6.82l.29-.29v-5.77h5.48v4.95h6.47v-4.31h2.21v4.78h9.55v-2.5h6.29v3.26h6.82v-8.85h13.86v12.87h3.55c-.21,27.3-.41,54.61-.62,81.91-127.05-.72-254.09-1.45-381.14-2.17-.94-2.33-1.88-4.67-2.83-7v-4.55c.85-4.69,2.53-10.58,5.9-16.75,4.65-8.51,10.43-13.73,12.72-15.47,3.43-2.6,7.6-4.76,7.6-4.76,2.31-1.19,3.89-1.8,5.5-2.49,2.91-1.23,7.01-3.17,11.96-6.17,4.9-2.56,10.19-5.64,15.7-9.33,6.65-4.47,12.37-9,17.21-13.27,9.11.02,18.21.04,27.32.06Z"/>
    </g>
  </g>
  <g id="Capa_27">
    <polygon class="st6" points="209.09 458.96 240.25 449.69 595.28 449.69 595.28 458.96 209.09 458.96"/>
    <g id="Capa_28">
      <polygon class="st21" points="596.28 438.54 596.28 451.31 594.14 451.31 594.14 440.68 578.24 440.68 578.24 438.54 596.28 438.54"/>
      <polygon class="st21" points="578.24 438.54 578.24 451.31 576.11 451.31 576.11 440.68 560.21 440.68 560.21 438.54 578.24 438.54"/>
      <polygon class="st21" points="560.21 438.54 560.21 451.31 558.07 451.31 558.07 440.68 542.17 440.68 542.17 438.54 560.21 438.54"/>
      <polygon class="st21" points="542.17 438.54 542.17 451.31 540.04 451.31 540.04 440.68 524.14 440.68 524.14 438.54 542.17 438.54"/>
      <polygon class="st21" points="524.44 438.54 524.44 451.31 522.31 451.31 522.31 440.68 506.41 440.68 506.41 438.54 524.44 438.54"/>
      <polygon class="st21" points="506.41 438.54 506.41 451.31 504.27 451.31 504.27 440.68 488.38 440.68 488.38 438.54 506.41 438.54"/>
      <polygon class="st21" points="488.38 438.54 488.38 451.31 486.24 451.31 486.24 440.68 470.34 440.68 470.34 438.54 488.38 438.54"/>
      <polygon class="st21" points="470.34 438.54 470.34 451.31 468.21 451.31 468.21 440.68 452.31 440.68 452.31 438.54 470.34 438.54"/>
      <polygon class="st21" points="452.31 438.54 452.31 451.31 450.17 451.31 450.17 440.68 434.28 440.68 434.28 438.54 452.31 438.54"/>
      <polygon class="st21" points="434.28 438.54 434.28 451.31 432.14 451.31 432.14 440.68 416.24 440.68 416.24 438.54 434.28 438.54"/>
      <polygon class="st21" points="416.24 438.54 416.24 451.31 414.11 451.31 414.11 440.68 398.21 440.68 398.21 438.54 416.24 438.54"/>
      <polygon class="st21" points="398.21 438.54 398.21 451.31 396.07 451.31 396.07 440.68 380.17 440.68 380.17 438.54 398.21 438.54"/>
      <polygon class="st21" points="380.48 438.54 380.48 451.31 378.34 451.31 378.34 440.68 362.44 440.68 362.44 438.54 380.48 438.54"/>
      <polygon class="st21" points="362.44 438.54 362.44 451.31 360.31 451.31 360.31 440.68 344.41 440.68 344.41 438.54 362.44 438.54"/>
      <polygon class="st21" points="344.41 438.54 344.41 451.31 342.27 451.31 342.27 440.68 326.38 440.68 326.38 438.54 344.41 438.54"/>
      <polygon class="st21" points="326.38 438.54 326.38 451.31 324.24 451.31 324.24 440.68 308.34 440.68 308.34 438.54 326.38 438.54"/>
    </g>
  </g>
  <g id="Capa_20">
    <rect class="st21" x="209.09" y="458.96" width="386.18" height="6.06"/>
  </g>
  <g id="sommbra">
    <g id="sombra_2">
      <polygon class="st26" points="218.54 476.98 431.94 476.98 412.96 468.27 220.99 468.27 218.54 476.98"/>
    </g>
  </g>
  <g id="carro">
    <g id="_x32_">
      <g id="_x30_.5">
        <polygon class="st3" points="207.36 464.31 202.34 464.31 211.31 448.55 224.66 448.55 233.06 453.08 235.97 459.93 235.97 464.56 207.36 464.31"/>
      </g>
      <path class="st5" d="M259.05,464.6v-70.93c-4.77.84-9.89,1.98-15.29,3.52-2.89.82-5.64,1.69-8.25,2.6-.85.26-2.26.8-3.67,1.99-1.58,1.33-2.38,2.83-2.75,3.67-4.03,7.9-8.05,15.8-12.08,23.69-1.81.45-4.09,1.19-6.57,2.45-2.45,1.25-4.38,2.64-5.81,3.82-.85.84-1.83,1.95-2.75,3.36-1.31,2.01-2.03,3.92-2.45,5.35v20.48h5.35c.09-1.26.6-6.4,4.89-10.55,3.74-3.62,8.09-4.28,9.48-4.43.99.02,7.27.28,11.62,5.5,3.19,3.83,3.48,8.09,3.52,9.48h24.76Z"/>
      <g id="Capa_16">
        <path class="st9" d="M259.05,393.67c20.33,10.65,40.66,21.3,60.99,31.95-20.33,12.99-40.66,25.99-60.99,38.98-1.08-11.07-1.76-23.27-1.72-36.46.03-12.42.7-23.95,1.72-34.47Z"/>
      </g>
    </g>
    <g id="Capa_6">
      <g id="Capa_7">
        <g id="Capa_17">
          <polygon class="st20" points="270.06 462.08 320.04 425.62 270.06 449.6 270.06 462.08"/>
          <polyline class="st20" points="260.15 449.6 320.04 425.62 270.06 449.6"/>
        </g>
        <rect class="st10" x="272.24" y="454.44" width="86.45" height="5.16"/>
      </g>
      <rect class="st14" x="272.24" y="449.62" width="97.68" height="6.92"/>
      <polygon class="st3" points="365.27 465.71 335.35 465.71 340.07 455.12 349.24 451.3 355.45 453.05 359.33 453.9 362.28 458.51 365.27 465.71"/>
      <g id="Capa_15">
        <g id="Capa_18">
          <path class="st20" d="M369.92,464.6l-4.65-3.63v-4.36c1.55-.02,3.1-.05,4.65-.07v8.06Z"/>
          <polyline class="st14" points="371.87 456.61 371.87 449.57 370.47 449.11 370.47 456.53"/>
        </g>
        <rect class="st16" x="371.87" y="449.57" width="4.3" height="6.96"/>
        <rect class="st0" x="369.92" y="456.54" width="8.2" height="7.78"/>
      </g>
    </g>
    <g id="_x33_">
      <rect class="st24" x="260.15" y="449.62" width="9.91" height="12.46"/>
    </g>
    <g id="_x31_">
      <rect class="st4" x="261.8" y="380.22" width="116.48" height="69.4"/>
      <rect class="st14" x="265.1" y="382.7" width="108.15" height="64.44"/>
      <rect class="st19" x="265.62" y="383.58" width="106.85" height="63.56"/>
    </g>
    <g id="llanta">
      <g id="Capa_10">
        <path class="st13" d="M365.27,465.71c-.55,0-1.11-.02-1.66-.02.15-7.41-5.82-13.58-13.07-13.7-7.42-.13-13.68,6.11-13.53,13.7-.59,0-1.19.02-1.78.03-.03-.94-.1-6.92,4.65-11.32,4.14-3.84,9.11-3.86,10.49-3.84,1.3.02,5.93.14,9.92,3.67,4.95,4.38,4.99,10.52,4.98,11.49Z"/>
      </g>
      <g id="Capa_11">
        <circle class="st5" cx="350.31" cy="465.01" r="11.97"/>
        <circle class="st5" cx="219.31" cy="465.01" r="11.97"/>
        <circle class="st10" cx="350.25" cy="464.6" r="7.99"/>
        <circle class="st14" cx="350.25" cy="464.6" r="4.63"/>
        <circle class="st10" cx="219.31" cy="465.01" r="7.99"/>
        <circle class="st14" cx="219.46" cy="464.56" r="4.63"/>
      </g>
    </g>
    <g id="ventana">
      <path class="st7" d="M250.95,422.56v-20.48c-2.49.47-5.07,1.02-7.72,1.64-2.82.66-5.52,1.37-8.1,2.1-.36.21-.8.51-1.24.94-.54.51-.89,1.03-1.13,1.43-1.74,3.01-3.47,6.12-5.2,9.32-2.34,4.34-4.53,8.6-6.57,12.76.03.35.14.98.57,1.61.82,1.19,2.15,1.41,2.41,1.45,8.99-3.59,17.99-7.18,26.98-10.78Z"/>
      <g id="Capa_13">
        <rect class="st14" x="242.54" y="431.58" width="8.41" height="2.28"/>
      </g>
      <path class="st11" d="M250.95,406.93c-.63,1.25-1.71,3.06-3.48,4.82-3.22,3.2-5.36,2.89-6.71,5.48-1.35,2.59.14,4.1-1.2,7.13-1,2.26-2.85,3.64-4.21,4.43-3.79,1.52-7.59,3.03-11.38,4.55.19-1.62.69-3.91,2.18-6.11,1.98-2.93,3.69-2.73,5.85-5.62,2.6-3.47.82-4.69,3.44-8.14,1.96-2.57,3.6-2.76,5.85-6.08,1-1.47,1.6-2.8,1.95-3.67,2.57-.55,5.15-1.1,7.72-1.64v4.85Z"/>
    </g>
    <g id="Capa_14">
      <path class="st27" d="M253.24,398.79v62.29h-16.59c.03-.87.14-8.39-5.99-13.31-4.74-3.8-10.1-3.53-11.36-3.43v-14.41c1.35-3.55,3.01-7.39,5.04-11.43,2.33-4.62,4.76-8.69,7.11-12.23.4-.51.95-1.11,1.68-1.68,1.17-.92,2.32-1.41,3.13-1.68,3.01-1.06,6.41-2.07,10.17-2.9,2.38-.53,4.66-.92,6.8-1.22Z"/>
    </g>
  </g>
  <g id="logo">
    <path class="st12" d="M298.43,424c-.24,0-.46-.08-.65-.24-.2-.16-.29-.34-.3-.54,0-.11,0-.22.03-.31,0-.02.01-.04.02-.06l10.27-24.31c.04-.14.11-.27.2-.39,0,0,.14-.19.35-.35.45-.33,1.08-.39,1.21-.4,2.2,0,4.4,0,6.6,0,.51,0,.9.1,1.19.31.29.21.48.45.57.73l10.74,24.12c.06.1.09.21.09.34,0,.2-.09.38-.29.55-.09.08-.12.07-.24.15-.19.13-.32.29-.4.41h-5.43c-.21-.02-.76-.1-1.21-.53-.18-.17-.3-.35-.37-.5l-1.67-3.57s-.06-.09-.14-.14c-.12-.07-.24-.05-.27-.05h-11.33c-.06,0-.17.03-.29.12-.09.07-.15.15-.18.2l-1.55,3.6c-.06.15-.19.32-.4.51-.21.19-.56.29-1.07.29l-5.51.06ZM309.55,413.81c2.32,0,4.64,0,6.96,0,.03,0,.27-.03.39-.25.1-.17.07-.33.06-.37l-3.57-8.28c-.16-.36-.77-.36-.92,0l-3.39,8.36c-.11.27.13.54.46.54Z"/>
    <path class="st19" d="M325.91,421.2c-.56.43-.63,1.34-.74,3.16-.14,2.22.19,2.62.37,2.79.3.27.64.29,1.49.34,3.76.22,4.68.33,5.08-.31.1-.16.12-.29.15-.46.14-.75-.24-1.31-1.02-2.57-1.15-1.86-1.27-2.19-1.89-2.63-.23-.16-.61-.43-1.18-.57-.19-.05-1.44-.37-2.26.27Z"/>
    <path class="st15" d="M320.09,403.34c.88,0,7.02,0,7.18,0,.6.02,1.02.03,1.37.16.29.11.5.29.76.59,1.91,2.26,3.11,4.54,3.11,4.54,1.16,2.22,1.25,2.71,2.02,3.16.59.35.88.32,2.04.85.36.16,1.19.45,1.86,1.11.62.62.87,1.3,1,1.7.73,2.1.68,6.38-2,7.92-.4.23-1.1.53-2.15.55.16-2.3-1.07-4.47-3.09-5.46-1.81-.89-3.98-.71-5.67.46-2.15-5.19-4.29-10.39-6.44-15.58Z"/>
    <path class="st7" d="M325.29,405.03c-.77.61-.75,1.7-.73,3.1,0,.22-.02,2.91.86,3.22.28.1.58.12.58.12.06,0,.09,0,.34,0,.32,0,.48,0,.63,0,.07,0,.29,0,.74,0,.34,0,.85,0,1.44,0,.18,0,.36,0,.55,0,.13,0,.31,0,.55,0,0,0,.06,0,.12,0,.42-.03.8-.06.98-.23.12-.11.18-.3.13-.78-.07-.59-.27-1.2-.86-2.21-.2-.35-.45-.71-.93-1.42-.54-.79-.66-.92-.73-1.01-.3-.32-.75-.81-1.46-1.03-.13-.04-1.36-.4-2.21.26Z"/>
    <g>
      <path class="st25" d="M299.34,432.46c-.17,0-.3-.05-.39-.14-.09-.09-.13-.22-.13-.38v-2.62h-.87c-.14,0-.24-.04-.31-.11-.07-.07-.11-.18-.11-.31s.04-.24.11-.31c.07-.07.18-.11.31-.11h2.77c.14,0,.25.04.32.11.07.07.11.17.11.31s-.04.24-.11.31c-.07.07-.18.11-.32.11h-.87v2.62c0,.16-.04.29-.13.38-.09.09-.21.14-.38.14Z"/>
      <path class="st25" d="M302,432.46c-.17,0-.29-.05-.38-.14s-.13-.22-.13-.38v-2.94c0-.17.04-.3.14-.39.09-.09.22-.13.39-.13h1.37c.44,0,.78.11,1.02.33.24.22.36.52.36.91,0,.25-.05.47-.16.65-.11.18-.27.32-.47.42-.21.1-.46.15-.75.15l.04-.1h.27c.16,0,.3.04.42.11.12.08.22.19.31.35l.27.5c.06.11.09.22.09.32,0,.1-.04.18-.12.25-.07.07-.18.1-.34.1-.14,0-.26-.03-.35-.09-.09-.06-.17-.15-.24-.28l-.51-.94c-.04-.08-.1-.13-.17-.16-.07-.03-.15-.05-.24-.05h-.31v1c0,.16-.04.29-.13.38-.09.09-.21.14-.38.14ZM302.51,430.22h.68c.2,0,.35-.04.45-.12s.15-.2.15-.36-.05-.28-.15-.36-.25-.12-.45-.12h-.68v.95Z"/>
      <path class="st25" d="M305.52,432.46c-.12,0-.21-.03-.29-.08-.08-.06-.13-.13-.14-.23s0-.2.05-.32l1.39-2.99c.07-.14.15-.25.25-.32s.21-.1.34-.1.24.04.33.1.17.18.24.32l1.39,2.99c.06.12.08.23.06.32s-.06.17-.14.23-.17.08-.28.08c-.14,0-.25-.04-.33-.11-.08-.07-.15-.18-.22-.33l-.3-.7.4.29h-2.3l.39-.29-.3.7c-.06.15-.13.26-.2.33-.07.07-.18.1-.32.1ZM307.1,429.55l-.65,1.54-.16-.27h1.62l-.16.27-.65-1.54h-.01Z"/>
      <path class="st25" d="M310.07,432.46c-.16,0-.28-.04-.36-.13-.08-.09-.12-.21-.12-.36v-3.04c0-.16.04-.28.12-.37.08-.09.19-.13.33-.13.12,0,.21.02.27.07.07.05.14.12.22.23l1.77,2.21h-.16v-2.02c0-.15.04-.27.12-.36.08-.09.2-.13.35-.13s.27.04.36.13c.08.08.12.2.12.36v3.09c0,.14-.04.25-.11.34-.08.09-.18.13-.3.13s-.23-.02-.3-.07c-.07-.05-.15-.12-.24-.23l-1.76-2.21h.16v2.02c0,.16-.04.28-.12.36-.08.08-.2.13-.35.13Z"/>
      <path class="st25" d="M315.28,432.48c-.15,0-.31-.01-.47-.03-.16-.02-.31-.05-.46-.09s-.28-.09-.39-.14c-.1-.05-.17-.11-.21-.2s-.06-.17-.04-.25c.01-.09.04-.17.09-.23.05-.07.12-.12.21-.14.09-.02.18-.01.29.04.14.07.3.12.48.16.18.04.35.06.51.06.24,0,.41-.03.51-.1.1-.07.15-.15.15-.24,0-.08-.03-.15-.1-.21-.07-.05-.19-.1-.37-.13l-.65-.14c-.36-.08-.63-.21-.8-.39-.17-.18-.26-.42-.26-.72,0-.2.04-.37.12-.53.08-.16.2-.29.34-.4s.32-.2.52-.26.43-.09.67-.09c.19,0,.39.02.59.07.2.04.37.11.52.19.09.04.15.11.19.19.04.08.05.16.04.24,0,.08-.04.15-.09.22-.05.06-.12.11-.2.12-.08.02-.18,0-.3-.04-.11-.05-.23-.09-.37-.11-.13-.03-.26-.04-.39-.04-.14,0-.25.02-.35.05s-.17.08-.22.14c-.05.06-.08.13-.08.21s.03.14.1.2.19.1.36.13l.65.14c.36.08.63.21.81.39.18.18.27.41.27.7,0,.19-.04.37-.12.52s-.19.29-.34.4-.32.2-.52.26c-.2.06-.43.09-.68.09Z"/>
      <path class="st25" d="M317.96,432.46c-.17,0-.29-.05-.38-.14-.09-.09-.13-.22-.13-.38v-2.94c0-.17.05-.3.14-.39.09-.09.22-.13.39-.13h1.37c.44,0,.78.11,1.03.34.24.23.36.54.36.94s-.12.72-.36.94c-.24.23-.58.34-1.03.34h-.87v.89c0,.16-.04.29-.13.38s-.21.14-.38.14ZM318.46,430.27h.69c.2,0,.35-.04.45-.12.1-.08.15-.21.15-.38s-.05-.29-.15-.38c-.1-.08-.25-.12-.45-.12h-.69v1Z"/>
      <path class="st25" d="M323.09,432.48c-.4,0-.75-.08-1.04-.26s-.53-.41-.7-.71c-.17-.3-.25-.66-.25-1.06,0-.31.05-.59.14-.83s.23-.46.41-.64c.18-.18.39-.31.64-.41.25-.1.52-.15.81-.15.4,0,.75.08,1.05.25s.53.4.7.71.25.66.25,1.07c0,.3-.05.58-.14.83s-.23.46-.41.64-.39.32-.63.42-.52.15-.81.15ZM323.09,431.61c.2,0,.36-.05.5-.14s.24-.23.32-.4c.07-.17.11-.38.11-.63,0-.36-.08-.65-.25-.86-.16-.21-.39-.31-.68-.31-.19,0-.36.05-.5.14s-.25.22-.32.4-.11.38-.11.63c0,.37.08.65.25.86s.4.31.69.31Z"/>
      <path class="st25" d="M326.21,432.46c-.17,0-.29-.05-.38-.14s-.13-.22-.13-.38v-2.94c0-.17.04-.3.14-.39.09-.09.22-.13.39-.13h1.37c.44,0,.78.11,1.02.33.24.22.36.52.36.91,0,.25-.05.47-.16.65-.11.18-.27.32-.47.42-.21.1-.46.15-.75.15l.04-.1h.27c.16,0,.3.04.42.11.12.08.22.19.31.35l.27.5c.06.11.09.22.09.32,0,.1-.04.18-.12.25-.07.07-.18.1-.34.1-.14,0-.26-.03-.35-.09-.09-.06-.17-.15-.24-.28l-.51-.94c-.04-.08-.1-.13-.17-.16-.07-.03-.15-.05-.24-.05h-.31v1c0,.16-.04.29-.13.38-.09.09-.21.14-.38.14ZM326.71,430.22h.68c.2,0,.35-.04.45-.12s.15-.2.15-.36-.05-.28-.15-.36-.25-.12-.45-.12h-.68v.95Z"/>
      <path class="st25" d="M330.95,432.46c-.17,0-.3-.05-.38-.14s-.13-.22-.13-.38v-2.62h-.88c-.14,0-.24-.04-.31-.11s-.11-.18-.11-.31.04-.24.11-.31.18-.11.31-.11h2.77c.14,0,.25.04.32.11.07.07.11.17.11.31s-.04.24-.11.31c-.07.07-.18.11-.32.11h-.87v2.62c0,.16-.04.29-.13.38-.09.09-.21.14-.38.14Z"/>
      <path class="st25" d="M333.63,432.41c-.17,0-.31-.05-.4-.14-.09-.09-.14-.22-.14-.4v-2.86c0-.17.04-.31.14-.4s.22-.14.4-.14h1.89c.13,0,.22.03.29.1.07.07.1.16.1.29s-.03.23-.1.3-.17.1-.29.1h-1.45v.75h1.33c.13,0,.23.03.3.1s.1.17.1.29-.03.22-.1.29c-.07.07-.17.1-.3.1h-1.33v.81h1.45c.13,0,.22.03.29.1.07.07.1.17.1.29s-.03.23-.1.29c-.07.07-.17.1-.29.1h-1.89Z"/>
      <path class="st25" d="M337.93,432.48c-.15,0-.31-.01-.47-.03-.16-.02-.31-.05-.46-.09s-.28-.09-.39-.14c-.1-.05-.17-.11-.21-.2s-.06-.17-.04-.25c.01-.09.04-.17.09-.23.05-.07.12-.12.21-.14.09-.02.18-.01.29.04.14.07.3.12.48.16.18.04.35.06.51.06.24,0,.41-.03.51-.1.1-.07.15-.15.15-.24,0-.08-.03-.15-.1-.21-.07-.05-.19-.1-.37-.13l-.65-.14c-.36-.08-.63-.21-.8-.39-.17-.18-.26-.42-.26-.72,0-.2.04-.37.12-.53.08-.16.2-.29.34-.4s.32-.2.52-.26.43-.09.67-.09c.19,0,.39.02.59.07.2.04.37.11.52.19.09.04.15.11.19.19.04.08.05.16.04.24,0,.08-.04.15-.09.22-.05.06-.12.11-.2.12-.08.02-.18,0-.3-.04-.11-.05-.23-.09-.37-.11-.13-.03-.26-.04-.39-.04-.14,0-.25.02-.35.05s-.17.08-.22.14c-.05.06-.08.13-.08.21s.03.14.1.2.19.1.36.13l.65.14c.36.08.63.21.81.39.18.18.27.41.27.7,0,.19-.04.37-.12.52s-.19.29-.34.4-.32.2-.52.26c-.2.06-.43.09-.68.09Z"/>
    </g>
    <path class="st19" d="M332.2,418.46c-.35-.14-.92-.34-1.63-.4-1.98-.19-4.62.64-5.78,2.84-.66,1.26-.61,2.54-.5,3.3h2.56c.19-.97.38-1.93.56-2.9,1.59-.95,3.19-1.89,4.78-2.84Z"/>
    <path class="st19" d="M324.28,424.07c-.08-.49-.14-1.31.14-2.25.31-1.03.86-1.68,1.17-2.03.6-.69,1.2-1.05,1.37-1.15.19-.11.35-.19.47-.24.15-.07.34-.15.57-.23.37-.13.7-.19.93-.22.42-.06.78-.07,1-.06.67.02,1.19.16,1.45.25.62.2,1.09.47,1.42.69"/>
    <path class="st15" d="M334.02,422.81c-.02,2.21-2.23,3.81-4.32,3.81s-4.3-1.6-4.32-3.81c-.02-2.23,2.2-3.89,4.32-3.89s4.34,1.66,4.32,3.89Z"/>
    <g>
      <path class="st12" d="M298.22,439.98c-.18,0-.34-.04-.46-.13-.12-.09-.2-.21-.23-.36s0-.32.08-.51l2.21-4.77c.11-.23.24-.4.39-.51.15-.11.33-.16.54-.16s.38.05.53.16c.15.11.28.28.39.51l2.22,4.77c.09.19.12.36.09.52-.03.15-.1.27-.22.36-.12.09-.27.13-.45.13-.22,0-.4-.06-.53-.17-.13-.11-.25-.29-.35-.52l-.48-1.12.63.46h-3.67l.62-.46-.48,1.12c-.1.24-.21.42-.32.53-.11.11-.28.16-.52.16ZM300.74,435.33l-1.03,2.46-.25-.43h2.59l-.26.43-1.03-2.46h-.02Z"/>
      <path class="st12" d="M306.22,439.98c-.25,0-.44-.07-.57-.2-.13-.14-.2-.33-.2-.58v-4.86c0-.25.07-.45.2-.6.13-.14.3-.21.52-.21.18,0,.33.04.44.11s.23.19.36.36l2.82,3.52h-.25v-3.22c0-.24.06-.43.19-.57.13-.14.32-.2.56-.2s.44.07.57.2c.13.14.2.33.2.57v4.93c0,.22-.06.4-.18.54-.12.14-.28.21-.48.21s-.36-.04-.48-.11c-.12-.07-.24-.19-.38-.36l-2.81-3.53h.25v3.22c0,.25-.06.44-.19.58-.13.14-.32.2-.56.2Z"/>
      <path class="st12" d="M316.13,440c-.72,0-1.33-.13-1.83-.41-.5-.27-.88-.64-1.15-1.12-.26-.48-.4-1.04-.4-1.68,0-.5.08-.95.24-1.35.16-.4.39-.75.68-1.03.3-.28.66-.5,1.09-.66s.92-.24,1.46-.24c.3,0,.6.03.91.09.31.06.61.17.92.32.14.07.24.17.3.3.06.13.08.26.06.4-.02.14-.07.27-.16.38-.09.11-.2.19-.33.23-.13.04-.29.02-.46-.06-.18-.08-.37-.15-.57-.19-.2-.04-.42-.07-.65-.07-.4,0-.74.07-1,.21s-.47.35-.6.63c-.13.28-.2.62-.2,1.02,0,.61.15,1.06.45,1.37.3.31.74.46,1.32.46.18,0,.37-.02.58-.05.21-.04.42-.09.64-.16l-.3.62v-1.52h-.61c-.21,0-.37-.05-.48-.15s-.16-.24-.16-.42c0-.19.05-.33.16-.43.11-.1.27-.15.48-.15h1.31c.21,0,.37.05.48.16s.16.27.16.48v1.97c0,.18-.04.33-.11.45-.07.12-.19.21-.35.27-.28.09-.58.17-.9.22-.32.05-.65.08-.98.08Z"/>
      <path class="st12" d="M323.09,440c-.46,0-.86-.06-1.21-.18-.35-.12-.65-.29-.88-.52-.24-.23-.42-.52-.54-.86-.12-.35-.18-.75-.18-1.22v-2.85c0-.27.07-.48.21-.62.14-.14.35-.21.61-.21s.45.07.6.21c.14.14.21.35.21.62v2.86c0,.46.1.81.3,1.04s.5.35.88.35.67-.12.88-.35c.21-.23.31-.58.31-1.04v-2.86c0-.27.07-.48.21-.62.14-.14.34-.21.59-.21s.45.07.59.21c.14.14.21.35.21.62v2.85c0,.62-.1,1.13-.32,1.55-.21.42-.52.72-.93.93-.41.21-.92.31-1.53.31Z"/>
      <path class="st12" d="M328.54,439.89c-.27,0-.47-.07-.62-.22s-.22-.35-.22-.62v-4.61c0-.27.07-.47.21-.61s.35-.21.61-.21.45.07.6.21c.14.14.21.35.21.61v4.09h2.18c.23,0,.4.06.52.17.12.12.18.28.18.5s-.06.39-.18.51c-.12.12-.29.18-.52.18h-2.98Z"/>
      <path class="st12" d="M336.32,440c-.63,0-1.19-.14-1.67-.41-.48-.27-.85-.65-1.12-1.14-.27-.49-.4-1.05-.4-1.7,0-.49.08-.93.23-1.33s.37-.73.65-1.01c.29-.28.62-.5,1.01-.66.39-.16.82-.24,1.3-.24.63,0,1.19.13,1.67.4.48.27.85.65,1.12,1.13.26.48.4,1.05.4,1.7,0,.49-.08.93-.23,1.33-.15.4-.37.74-.65,1.02-.28.28-.62.5-1.01.66-.39.16-.82.24-1.3.24ZM336.32,438.62c.31,0,.58-.07.8-.22.22-.15.39-.36.51-.64.12-.28.18-.61.18-1,0-.58-.13-1.04-.39-1.37s-.63-.49-1.09-.49c-.31,0-.57.07-.8.22s-.39.36-.52.64c-.12.28-.18.61-.18,1,0,.59.13,1.04.4,1.37s.63.49,1.09.49Z"/>
    </g>
  </g>
</svg>